<?xml version="1.0" standalone="no"?>
<!DOCTYPE svg PUBLIC "-//W3C//DTD SVG 20010904//EN"
 "http://www.w3.org/TR/2001/REC-SVG-20010904/DTD/svg10.dtd">
<svg version="1.0" xmlns="http://www.w3.org/2000/svg"
 width="1024.000000pt" height="1024.000000pt" viewBox="0 0 1024.000000 1024.000000"
 preserveAspectRatio="xMidYMid meet">

<g transform="translate(0.000000,1024.000000) scale(0.100000,-0.100000)"
fill="#000000" stroke="none">
<path d="M6945 9183 c-234 -51 -594 -138 -600 -145 -5 -5 -14 -173 -15 -268
l0 -84 -37 35 c-21 20 -54 46 -73 59 l-35 24 38 -42 c20 -23 37 -45 37 -48 0
-3 -33 23 -72 56 -135 114 -242 160 -374 160 -156 0 -300 -84 -440 -255 -47
-57 -94 -139 -119 -207 -10 -27 -21 -48 -24 -48 -4 0 -22 16 -41 35 -18 19
-61 54 -94 77 l-61 42 37 -41 c20 -23 44 -57 54 -75 14 -28 7 -24 -52 31 -81
75 -187 147 -256 173 -168 64 -334 34 -482 -87 l-55 -44 -259 261 -258 261
-150 -37 c-82 -20 -313 -74 -514 -121 -651 -152 -710 -170 -912 -270 -185 -93
-408 -276 -560 -463 -299 -365 -456 -894 -434 -1457 20 -510 156 -875 474
-1265 38 -47 107 -140 154 -205 47 -66 115 -158 152 -204 36 -46 66 -87 66
-91 0 -9 -76 -31 -220 -64 -58 -13 -216 -50 -352 -82 l-246 -57 9 -24 c5 -14
9 -145 9 -293 l0 -269 43 -35 c23 -19 173 -135 332 -257 160 -122 310 -238
335 -258 88 -71 80 -72 80 5 l-1 69 -155 115 c-86 63 -193 143 -237 178 -45
34 -128 97 -184 140 l-103 77 0 231 0 231 829 207 c456 113 876 213 933 222
253 39 504 -16 691 -150 80 -56 194 -175 242 -250 114 -178 178 -453 196 -844
16 -333 6 -1116 -15 -1212 -82 -379 -306 -668 -639 -825 -136 -64 -263 -97
-652 -170 -192 -36 -404 -77 -470 -90 -184 -37 -395 -76 -416 -78 -11 -1 -19
-4 -19 -8 0 -4 51 -51 113 -106 320 -282 417 -363 431 -363 9 0 152 29 318 65
831 180 876 192 1055 284 196 101 366 254 494 444 35 53 68 96 73 97 5 0 54
-42 110 -93 55 -52 129 -119 162 -150 l62 -57 673 150 c370 82 678 151 683
153 6 2 -46 63 -114 137 -174 186 -249 273 -250 288 0 8 30 -12 68 -43 37 -31
123 -102 192 -158 205 -166 263 -219 641 -592 l166 -164 57 16 58 16 -164 160
c-272 265 -398 390 -396 392 2 1 82 18 178 39 172 37 473 104 497 112 7 2 -45
62 -115 133 -70 72 -170 178 -222 235 -71 78 -101 105 -120 105 -14 0 -142
-26 -285 -58 l-260 -58 -5 446 -5 446 -186 525 c-229 645 -414 1189 -406 1196
5 6 468 119 535 131 17 3 32 3 32 0 0 -3 16 -59 36 -124 66 -217 176 -585 220
-733 49 -169 78 -247 82 -220 6 43 82 340 117 461 77 261 263 679 385 864 138
209 341 426 510 548 218 156 486 249 715 249 184 1 299 -40 410 -143 216 -202
181 -549 -66 -675 -46 -23 -205 -68 -306 -87 l-33 -6 0 99 c0 203 -45 289
-164 311 -52 9 -155 -10 -215 -40 -114 -59 -231 -215 -271 -365 -45 -164 -21
-279 71 -341 62 -42 120 -53 369 -65 338 -17 448 -37 572 -102 234 -124 345
-462 278 -850 -52 -305 -199 -570 -440 -793 -81 -76 -133 -112 -245 -169 -382
-197 -787 -138 -915 131 -40 85 -46 170 -22 318 12 72 24 151 27 176 l7 46 76
17 c166 37 403 86 417 86 12 0 15 -20 15 -112 0 -95 3 -118 20 -146 37 -60
107 -65 208 -15 115 58 216 215 267 417 42 164 30 290 -33 359 -51 57 -156 81
-427 97 -236 14 -329 26 -427 56 -72 23 -171 84 -207 127 -7 9 -17 17 -21 17
-13 0 -80 -181 -169 -460 -45 -140 -85 -262 -88 -270 -6 -20 -70 -254 -83
-305 -5 -22 -15 -62 -21 -90 -8 -32 -13 -197 -16 -463 l-5 -414 39 -32 c21
-18 117 -98 214 -178 l177 -146 7 192 c4 105 5 268 3 363 l-3 171 59 -60 c32
-33 59 -68 61 -77 1 -9 9 -16 16 -15 22 2 163 -152 148 -161 -7 -5 -10 -4 -6
2 4 6 0 16 -9 24 -12 10 -19 9 -36 -9 -19 -19 -20 -22 -4 -37 9 -9 16 -23 16
-31 0 -8 7 -17 16 -21 9 -3 14 -13 11 -24 -3 -12 0 -16 9 -12 8 3 16 -9 24
-36 6 -22 20 -45 31 -51 11 -6 17 -15 14 -21 -4 -5 2 -9 11 -9 16 0 16 -1 -2
-15 -14 -11 -15 -14 -3 -9 27 9 64 -37 60 -74 -1 -7 2 -12 6 -11 21 4 34 -2
27 -12 -3 -6 123 -140 293 -310 l300 -299 44 5 c24 3 60 10 79 14 19 5 48 12
63 15 l28 7 -43 35 c-38 32 -104 94 -437 409 -179 169 -279 269 -213 215 l62
-53 108 6 c238 15 463 93 671 232 329 220 577 606 673 1047 19 90 22 129 21
308 -1 113 -3 221 -5 240 -2 22 1 34 8 33 7 -1 9 8 5 25 -5 26 -6 26 -9 4 -2
-13 -7 -22 -12 -20 -5 2 -35 33 -67 69 -32 37 -109 122 -172 190 -62 68 -136
158 -164 199 -27 41 -72 103 -99 138 -26 34 -45 62 -40 62 4 0 101 -90 214
-200 113 -110 211 -200 217 -200 6 0 10 -6 8 -13 -1 -6 3 -11 10 -10 8 2 10
-4 6 -14 -5 -12 -3 -14 7 -8 8 5 11 4 7 -2 -8 -13 37 -105 48 -96 4 5 5 -2 2
-14 -8 -35 10 -37 22 -3 13 39 16 38 16 -8 0 -20 9 -55 19 -77 11 -22 19 -44
18 -49 -4 -12 39 -56 54 -56 22 0 24 -16 2 -17 -11 -1 -23 -4 -26 -7 -8 -8 19
-37 29 -31 13 8 49 -33 43 -48 -3 -8 8 -24 25 -38 35 -27 38 -36 14 -41 -14
-3 -11 -9 15 -36 17 -17 29 -38 26 -45 -7 -18 17 -37 41 -33 25 4 65 -31 58
-50 -3 -8 0 -14 6 -14 6 0 11 -9 11 -20 0 -11 5 -20 10 -20 6 0 10 -8 10 -18
0 -23 40 -62 63 -62 9 0 17 -4 17 -10 0 -5 -13 -10 -30 -10 -16 0 -30 -4 -30
-9 0 -14 28 -33 39 -26 6 3 19 -3 31 -15 11 -11 26 -20 33 -21 6 0 3 -4 -8 -9
-11 -5 -14 -9 -7 -9 6 -1 12 -8 12 -16 0 -12 4 -13 18 -6 15 8 22 4 36 -20 9
-16 24 -29 32 -29 8 0 14 -1 15 -2 4 -16 7 -100 3 -90 -9 19 -24 14 -24 -8 0
-11 5 -20 11 -20 7 0 9 -10 7 -25 -3 -14 -2 -28 2 -30 5 -3 13 28 18 67 l11
73 -4 -80 c-2 -44 0 -66 3 -50 6 30 6 30 13 -10 5 -24 6 -6 3 44 -3 46 -12
113 -20 150 -8 36 -17 78 -20 94 -4 15 -10 27 -15 27 -4 0 -7 8 -6 19 2 24
-35 131 -45 131 -4 0 -8 7 -8 15 0 16 -49 115 -57 115 -2 0 -1 -5 3 -12 4 -7
3 -8 -4 -4 -6 4 -8 14 -5 23 4 11 3 14 -5 9 -8 -5 -10 -2 -6 8 4 10 1 16 -7
16 -7 0 -9 3 -6 7 4 3 2 12 -4 20 -8 9 -15 10 -24 3 -9 -8 -15 -8 -20 0 -4 6
-1 9 6 8 27 -7 16 22 -28 72 -122 139 -420 436 -434 433 -4 -2 -5 5 -2 14 4
11 3 14 -5 9 -7 -4 -12 -3 -12 3 0 6 -7 8 -15 5 -8 -4 -15 -1 -15 5 0 6 -65
75 -144 153 l-145 141 40 45 c73 83 154 268 195 442 21 88 28 421 9 413 -6 -2
-25 13 -42 34 -16 21 -69 81 -118 133 -48 52 -122 138 -165 190 -158 195 -262
265 -440 296 -69 12 -121 14 -190 10 -340 -24 -655 -174 -929 -444 l-95 -92
-145 142 c-80 79 -150 148 -157 153 -6 6 -87 84 -178 174 -99 98 -166 157
-166 147 0 -10 3 -15 8 -13 4 3 6 -36 6 -85 -2 -77 2 -98 21 -137 13 -25 21
-49 18 -54 -5 -8 31 -60 74 -107 23 -25 33 -54 12 -33 -6 6 -18 9 -27 6 -11
-5 -13 -3 -7 7 12 20 -17 1 -33 -22 -7 -10 -27 -25 -43 -33 -16 -9 -27 -20
-25 -24 3 -4 1 -22 -3 -39 -6 -18 -5 -34 0 -39 6 -6 4 -15 -6 -23 -13 -11 -18
-10 -33 3 -9 9 -90 82 -179 162 -90 81 -163 150 -163 153 0 4 84 28 188 53
l187 46 -4 114 -3 114 43 -41 c24 -23 87 -79 139 -124 l95 -82 90 6 c95 6 242
40 360 82 314 113 554 377 659 724 56 187 59 223 63 907 l5 632 -226 239
c-283 298 -329 334 -468 367 -58 14 -216 19 -263 8z m268 -124 c117 -38 206
-127 244 -242 14 -45 17 -107 20 -427 2 -206 0 -532 -5 -725 -8 -299 -13 -360
-29 -420 -46 -163 -122 -298 -228 -401 -108 -106 -209 -164 -365 -208 -71 -20
-414 -96 -435 -96 -14 0 -15 121 -10 1196 2 658 6 1198 8 1201 3 2 87 24 188
49 411 101 496 111 612 73z m-3433 -669 c0 -302 -3 -550 -6 -550 -3 0 -146
-34 -318 -75 -172 -41 -315 -75 -318 -75 -3 0 -8 66 -10 148 -4 135 -6 151
-30 197 -91 174 -314 244 -574 180 -339 -84 -566 -375 -650 -830 -26 -138 -32
-604 -10 -753 50 -340 180 -499 419 -510 53 -3 87 -1 87 5 0 6 -15 44 -34 84
-64 138 -90 310 -90 599 0 119 5 224 13 270 29 164 92 318 172 420 41 54 128
139 140 140 14 0 18 -30 5 -37 -7 -5 -18 -18 -25 -30 -9 -18 -9 -22 2 -17 22
8 9 -44 -13 -56 -19 -10 -43 -67 -34 -81 3 -5 -2 -6 -10 -3 -9 3 -16 2 -16 -4
0 -6 6 -12 13 -15 10 -4 10 -7 0 -18 -10 -10 -13 -10 -13 0 0 7 -5 9 -11 5 -6
-3 -9 -17 -6 -30 5 -28 -1 -37 -36 -56 l-28 -14 2 -220 c3 -330 -7 -289 83
-337 56 -30 75 -45 71 -57 -5 -11 -3 -12 6 -3 8 8 18 9 34 1 22 -10 23 -12 9
-50 -18 -52 -1 -293 24 -320 24 -28 2 -21 -53 17 -48 33 -68 38 -48 13 6 -7
13 -30 17 -50 5 -26 12 -38 24 -38 15 0 15 -2 2 -10 -13 -9 -13 -10 0 -10 13
0 13 -1 0 -10 -13 -9 -13 -10 0 -10 13 0 13 -1 0 -10 -8 -5 -12 -10 -8 -10 3
0 14 -3 24 -7 11 -4 15 -3 11 4 -5 7 0 9 11 6 17 -4 246 47 369 82 l52 15 3
321 c3 316 3 320 -17 316 -35 -9 -459 -118 -477 -123 -17 -5 -18 11 -18 245 0
235 1 251 18 251 20 0 267 56 422 95 52 13 163 40 245 59 423 98 718 166 723
166 8 0 -7 -378 -19 -460 -12 -80 -8 -764 4 -777 11 -11 8 -208 -3 -219 -8 -8
-8 -46 -2 -120 6 -60 8 -111 6 -113 -7 -7 70 -77 201 -183 66 -53 151 -123
189 -154 l69 -58 -7 190 c-11 284 -12 374 -5 374 3 0 14 -9 23 -19 13 -15 14
-20 4 -25 -7 -3 -4 -4 7 -1 23 6 99 -50 90 -66 -4 -5 0 -9 8 -9 8 0 20 -7 27
-15 7 -8 21 -15 32 -15 23 0 765 174 940 221 l37 10 3 86 3 87 65 -54 c36 -30
73 -61 82 -68 13 -11 29 -10 92 6 41 11 78 17 81 14 8 -8 5 -776 -3 -789 -4
-6 -25 -16 -47 -22 -69 -20 -1058 -253 -1275 -301 -80 -18 -146 -33 -148 -35
-1 -1 67 -67 153 -146 85 -79 157 -149 159 -156 3 -7 -67 -29 -210 -63 l-214
-52 56 -61 c98 -109 187 -256 258 -431 24 -58 19 -57 -16 4 -39 69 -97 144
-184 240 -119 130 -178 202 -245 295 -166 233 -302 344 -513 415 -198 67 -394
75 -636 25 -134 -27 -150 -31 -430 -99 -251 -61 -324 -76 -311 -63 7 7 6 14
-5 21 -12 9 10 17 103 34 198 39 1873 451 1873 462 0 3 -85 93 -189 200 l-188
195 -149 -37 c-1107 -276 -1375 -340 -1494 -359 -262 -41 -501 57 -640 261
-110 162 -197 418 -231 677 -19 142 -16 545 5 708 66 509 312 952 682 1228
223 166 378 226 879 341 110 26 265 62 345 81 80 18 217 50 305 71 88 20 174
40 190 44 17 4 33 8 38 9 4 1 7 -246 7 -549z m2226 440 c107 -52 211 -189 243
-322 14 -59 14 -1351 0 -1509 -14 -157 -51 -252 -141 -356 -113 -132 -270
-205 -438 -205 -93 0 -149 14 -215 57 -88 56 -149 146 -182 268 -16 55 -18
132 -18 722 0 602 2 667 18 745 69 317 266 559 506 620 62 16 173 6 227 -20z
m-1145 -247 c67 -36 148 -117 188 -186 17 -30 41 -91 52 -135 19 -77 20 -105
17 -848 -4 -839 -2 -809 -63 -937 -102 -217 -377 -355 -607 -306 -166 36 -288
170 -332 366 -23 103 -24 1309 -1 1449 47 292 199 508 424 603 108 45 232 43
322 -6z m-2237 -918 c-4 -8 -10 -15 -15 -15 -4 0 -6 -7 -3 -15 4 -8 2 -15 -4
-15 -21 0 -21 30 1 45 27 19 28 19 21 0z m3557 -1965 c63 -57 169 -158 237
-224 l122 -120 0 -241 c1 -213 2 -238 15 -221 16 22 20 9 9 -32 l-7 -23 -26
29 c-14 15 -71 68 -126 117 -55 49 -118 105 -140 126 -22 20 -91 83 -152 139
l-113 102 0 259 0 260 33 -33 c18 -18 85 -80 148 -138z m-847 -717 c15 -53
113 -651 290 -1773 100 -636 126 -809 126 -832 0 -12 -8 -18 -23 -18 -12 0
-103 -17 -202 -39 -99 -21 -194 -41 -211 -44 l-31 -6 -12 97 c-7 53 -13 107
-14 120 -1 24 -10 26 -72 13 -154 -32 -381 -83 -384 -87 -3 -3 -14 -64 -26
-137 l-20 -132 -200 -42 c-245 -51 -237 -51 -225 -15 5 15 37 162 70 327 34
165 92 455 131 645 38 190 101 516 140 725 38 209 92 493 119 630 27 138 59
302 71 366 l21 115 77 18 c43 9 140 32 217 51 76 18 142 34 146 34 4 1 9 -7
12 -16z m4373 -1195 c-3 -8 -6 -5 -6 6 -1 11 2 17 5 13 3 -3 4 -12 1 -19z m86
-262 c18 -4 18 -4 -3 -3 -14 1 -25 8 -26 17 0 8 1 10 3 3 2 -6 14 -14 26 -17z
m54 -68 c-3 -7 -5 -2 -5 12 0 14 2 19 5 13 2 -7 2 -19 0 -25z m-2362 -885
c-18 -17 -18 -17 -6 0 11 14 11 20 0 35 -12 16 -12 16 6 0 19 -18 19 -18 0
-35z m46 -10 c13 -16 12 -17 -3 -4 -17 13 -22 21 -14 21 2 0 10 -8 17 -17z"/>
<path d="M6955 8713 c-11 -2 -57 -13 -102 -25 l-83 -22 0 -758 0 -758 28 6
c136 30 211 76 244 151 18 40 19 86 25 696 l6 653 -24 26 c-25 27 -59 38 -94
31z"/>
<path d="M2545 7600 c-10 -11 -14 -20 -9 -20 5 0 15 9 22 20 7 11 11 20 9 20
-2 0 -12 -9 -22 -20z"/>
<path d="M2520 7530 c8 -5 20 -10 25 -10 6 0 3 5 -5 10 -8 5 -19 10 -25 10 -5
0 -3 -5 5 -10z"/>
<path d="M5719 8260 c-20 -11 -48 -33 -63 -50 -26 -31 -26 -33 -26 -198 0 -92
-3 -357 -6 -590 -3 -277 -1 -436 6 -461 20 -77 96 -91 164 -30 66 58 64 31 68
707 3 598 3 614 -16 628 -27 19 -84 17 -127 -6z"/>
<path d="M4590 8028 c-46 -13 -87 -43 -104 -76 -10 -21 -14 -155 -19 -637 -6
-585 -5 -612 13 -652 23 -52 53 -62 114 -39 48 19 80 48 95 89 7 19 11 238 11
663 l0 635 -35 15 c-19 7 -36 14 -37 13 -2 0 -19 -5 -38 -11z"/>
<path d="M5141 3510 c-1 -30 -10 -95 -21 -145 -26 -117 -71 -377 -66 -382 5
-5 125 23 133 31 6 6 -21 360 -37 491 l-7 60 -2 -55z"/>
<path d="M7920 8495 c-9 -10 -9 -15 -1 -15 6 0 11 -7 11 -16 0 -10 6 -14 14
-11 9 4 36 -13 65 -39 53 -48 72 -52 23 -6 -15 15 -40 43 -56 62 -15 19 -25
29 -21 23 4 -8 0 -13 -10 -13 -11 0 -15 5 -11 15 3 8 4 15 2 15 -2 0 -9 -7
-16 -15z"/>
<path d="M7960 8418 c0 -17 20 -47 20 -31 0 6 3 18 6 27 4 11 1 16 -10 16 -9
0 -16 -6 -16 -12z"/>
<path d="M8010 8380 c6 -11 15 -20 20 -20 6 0 2 9 -7 20 -10 11 -19 20 -21 20
-1 0 2 -9 8 -20z"/>
<path d="M8041 8345 c-39 -28 -35 -33 9 -10 31 16 45 8 45 -26 0 -9 9 -27 20
-40 l20 -24 -22 18 -22 19 5 -54 c2 -29 7 -215 11 -413 4 -198 10 -334 13
-303 7 79 20 84 21 7 1 -35 3 -56 6 -47 5 22 39 19 60 -5 19 -21 19 -97 0
-109 -9 -5 -9 -10 -1 -18 9 -9 15 -8 25 3 12 13 15 4 24 -62 l10 -76 37 0 c23
0 34 -3 28 -10 -13 -12 -13 -75 0 -75 6 0 10 -32 10 -75 0 -84 18 -122 51
-105 14 8 21 3 38 -23 17 -26 18 -33 6 -35 -8 -2 -15 -7 -15 -11 0 -13 46 -52
53 -44 4 3 7 -1 7 -10 0 -10 -8 -17 -20 -17 -23 0 -26 -13 -6 -29 11 -9 15 -9
19 1 2 7 5 -29 6 -81 0 -52 3 -96 6 -99 3 -3 5 297 5 666 l0 671 -81 85 c-45
47 -85 83 -90 80 -5 -3 -7 1 -4 8 2 7 -51 71 -118 141 l-122 128 -34 -26z m96
-657 c-3 -8 -6 -5 -6 6 -1 11 2 17 5 13 3 -3 4 -12 1 -19z m-1 -86 c-12 -11
-18 7 -10 30 l8 23 4 -23 c2 -13 1 -26 -2 -30z m21 6 c-3 -7 -5 -2 -5 12 0 14
2 19 5 13 2 -7 2 -19 0 -25z m23 -82 c0 -3 -7 -6 -15 -6 -9 0 -15 9 -15 21 0
18 2 19 15 5 8 -8 15 -17 15 -20z m240 -546 c0 -11 -4 -20 -10 -20 -5 0 -10 9
-10 20 0 11 5 20 10 20 6 0 10 -9 10 -20z"/>
<path d="M8057 8329 c-24 -14 -22 -49 3 -49 11 0 20 3 21 8 0 4 2 15 4 24 4
23 -6 29 -28 17z"/>
<path d="M8050 8231 c0 -17 15 -19 28 -5 11 12 9 14 -8 14 -11 0 -20 -4 -20
-9z"/>
<path d="M8280 7030 c0 -13 12 -19 26 -13 21 8 17 22 -6 20 -11 -1 -20 -4 -20
-7z"/>
<path d="M8360 6872 c0 -4 5 -13 12 -20 18 -18 28 -15 28 8 0 13 -7 20 -20 20
-11 0 -20 -4 -20 -8z"/>
<path d="M9015 5830 c10 -19 22 -41 28 -48 6 -8 13 -23 14 -35 4 -27 22 -38
43 -27 12 6 16 4 16 -10 0 -14 -3 -16 -13 -8 -9 7 -13 7 -13 -1 0 -7 -4 -9
-10 -6 -5 3 -10 1 -10 -5 0 -7 7 -10 15 -6 19 7 41 -32 26 -47 -12 -12 14 -36
38 -37 11 0 10 5 -4 20 -10 11 -13 20 -7 20 7 0 12 -4 12 -10 0 -5 6 -10 13
-10 7 0 14 -12 15 -27 1 -15 7 -30 14 -34 16 -10 19 -39 5 -39 -8 0 -7 -3 1
-9 8 -4 14 -12 14 -17 0 -5 4 -8 8 -7 5 2 12 -6 15 -17 3 -10 14 -21 23 -23
16 -4 16 -5 0 -6 -26 -2 -22 -16 12 -42 16 -13 30 -31 30 -40 0 -18 35 -52 65
-64 l20 -7 -20 -8 c-11 -5 -14 -9 -7 -9 7 -1 11 -5 7 -10 -3 -5 9 -18 25 -28
23 -13 30 -24 27 -40 -3 -16 0 -20 11 -15 10 3 13 1 9 -5 -4 -6 0 -18 8 -26
19 -20 19 -25 -2 -29 -14 -3 -11 -9 15 -36 17 -17 29 -38 26 -46 -3 -7 9 -24
25 -37 17 -13 31 -31 31 -40 0 -9 16 -30 35 -48 19 -17 35 -37 35 -44 0 -8 4
-7 10 3 5 8 7 33 5 55 -3 22 -10 93 -16 158 -6 64 -16 117 -21 117 -5 0 -6 5
-2 11 8 13 -46 70 -59 62 -6 -3 -7 -1 -4 4 7 10 -28 53 -134 168 -26 28 -62
68 -80 90 -19 22 -59 67 -90 100 -31 33 -71 76 -88 95 -22 24 -30 29 -26 15 6
-20 6 -20 -9 -1 -8 10 -13 22 -11 26 2 3 -17 26 -42 51 l-46 44 18 -35z m65
-90 c6 -11 8 -20 6 -20 -3 0 -10 9 -16 20 -6 11 -8 20 -6 20 3 0 10 -9 16 -20z
m70 -44 c0 -2 -8 -10 -17 -17 -16 -13 -17 -12 -4 4 13 16 21 21 21 13z m7 -38
c-3 -8 -6 -5 -6 6 -1 11 2 17 5 13 3 -3 4 -12 1 -19z m71 -63 c-3 -3 -9 2 -12
12 -6 14 -5 15 5 6 7 -7 10 -15 7 -18z m17 -25 c3 -5 1 -10 -4 -10 -6 0 -11 5
-11 10 0 6 2 10 4 10 3 0 8 -4 11 -10z m12 -46 c-3 -3 -12 -4 -19 -1 -8 3 -5
6 6 6 11 1 17 -2 13 -5z m128 -94 c3 -5 1 -10 -4 -10 -6 0 -11 5 -11 10 0 6 2
10 4 10 3 0 8 -4 11 -10z m12 -45 c-15 -16 -19 -13 -11 9 3 9 10 13 15 10 5
-3 3 -11 -4 -19z m169 -156 c3 -6 1 -16 -6 -22 -10 -9 -11 -9 -5 2 4 8 2 17
-6 22 -9 6 -10 9 -2 9 6 0 15 -5 19 -11z m-111 -19 c3 -5 1 -10 -4 -10 -6 0
-11 5 -11 10 0 6 2 10 4 10 3 0 8 -4 11 -10z m80 -160 c3 -5 1 -10 -4 -10 -6
0 -11 5 -11 10 0 6 2 10 4 10 3 0 8 -4 11 -10z"/>
<path d="M6435 5830 c-3 -6 1 -7 9 -4 18 7 21 14 7 14 -6 0 -13 -4 -16 -10z"/>
<path d="M9560 4872 c0 -10 22 -32 32 -32 4 0 8 9 8 20 0 13 -7 20 -20 20 -11
0 -20 -4 -20 -8z"/>
<path d="M9612 4750 c0 -19 2 -27 5 -17 2 9 2 25 0 35 -3 9 -5 1 -5 -18z"/>
<path d="M2960 4590 c-68 -11 -154 -29 -200 -41 l-35 -8 -1 -1181 0 -1181 40
6 c176 28 379 67 416 80 105 37 221 142 268 242 l27 58 0 865 c0 825 -1 867
-19 916 -39 104 -120 186 -224 227 -55 22 -192 30 -272 17z m278 -244 c-10 -7
-15 -15 -12 -18 8 -9 10 -98 2 -98 -8 0 -5 -53 7 -112 4 -24 3 -38 -3 -38 -6
0 -8 -9 -5 -19 3 -10 0 -28 -6 -39 -6 -11 -7 -22 -2 -24 5 -2 12 -136 15 -298
4 -162 8 -387 11 -500 3 -113 7 -293 10 -400 3 -107 8 -217 12 -245 3 -27 7
-63 7 -78 0 -26 1 -27 13 -11 7 10 13 14 13 8 0 -14 -13 -28 -44 -48 -29 -19
-127 -49 -134 -42 -6 7 -5 1947 2 1953 6 7 74 20 111 21 19 1 19 0 3 -12z"/>
<path d="M9243 4250 c-7 -17 -7 -32 -2 -36 5 -3 9 -2 10 3 0 4 3 20 5 36 6 35
1 34 -13 -3z"/>
<path d="M7286 2761 c8 -8 43 -8 38 0 -2 4 -13 7 -24 6 -10 -1 -17 -3 -14 -6z"/>
<path d="M7353 2725 c10 -13 15 -31 12 -47 -6 -33 11 -46 33 -25 14 15 12 19
-23 54 -22 21 -32 29 -22 18z m47 -50 c0 -1 -6 -8 -14 -15 -12 -9 -15 -8 -13
8 0 12 6 18 14 15 7 -3 13 -6 13 -8z"/>
</g>
</svg>
